# xmcd CD database file
#
# Track frame offsets:
#	150
#	14228
#	34342
#	56880
#	70592
#	82963
#	99043
#	120710
#	141461
#	155956
#	171232
#	188678
#	207012
#	228414
#
# Disc length: 3282 seconds
#
# Revision: 0
# Processed by: cddbd v1.5.1PL0 Copyright (c) Steve Scherf et al.
# Submitted via: CDex 1.50
#
DISCID=c40cd00e
DTITLE=Aaron Neville - Warm Your Heart
DYEAR=1991
DGENRE=Blues
TTITLE0=Louisiana 1927
TTITLE1=Everybody Plays the Fool
TTITLE2=It Feels Like Rain
TTITLE3=Somewhere, Somebody
TTITLE4=Don't Go Please Stay
TTITLE5=With You In Mind
TTITLE6=That's the Way She Loves
TTITLE7=Angola Bound
TTITLE8=Close Your Eyes
TTITLE9=La Vie Dansante
TTITLE10=Warm Your Heart
TTITLE11=I Bid You Goodnight
TTITLE12=Ave Maria
TTITLE13=House on a Hill
EXTD=YEAR: 1991
EXTT0=
EXTT1=
EXTT2=
EXTT3=
EXTT4=
EXTT5=
EXTT6=
EXTT7=
EXTT8=
EXTT9=
EXTT10=
EXTT11=
EXTT12=
EXTT13=
PLAYORDER=
